<?xml version="1.0" ?><!DOCTYPE svg  PUBLIC '-//W3C//DTD SVG 1.1//EN'  'http://www.w3.org/Graphics/SVG/1.1/DTD/svg11.dtd'><svg height="100%" style="fill-rule:evenodd;clip-rule:evenodd;stroke-linejoin:round;stroke-miterlimit:2;" version="1.1" viewBox="0 0 24 24" width="100%" xml:space="preserve" xmlns="http://www.w3.org/2000/svg" xmlns:serif="http://www.serif.com/" xmlns:xlink="http://www.w3.org/1999/xlink"><g id="Icon"><path d="M14.75,3.25l0,-0.25c0,-0.414 0.336,-0.75 0.75,-0.75c0.414,0 0.75,0.336 0.75,0.75l0,0.25l0.75,-0c1.26,-0 2.468,0.5 3.359,1.391c0.891,0.891 1.391,2.099 1.391,3.359l0,9c0,1.26 -0.5,2.468 -1.391,3.359c-0.891,0.891 -2.099,1.391 -3.359,1.391l-10,-0c-1.26,0 -2.468,-0.5 -3.359,-1.391c-0.891,-0.891 -1.391,-2.099 -1.391,-3.359c0,-2.713 0,-6.287 0,-9c-0,-1.26 0.5,-2.468 1.391,-3.359c0.891,-0.891 2.099,-1.391 3.359,-1.391l0.75,-0l0,-0.25c0,-0.414 0.336,-0.75 0.75,-0.75c0.414,0 0.75,0.336 0.75,0.75l0,0.25l5.5,-0Zm5.5,7l-16.5,-0l0,6.75c-0,0.862 0.342,1.689 0.952,2.298c0.609,0.61 1.436,0.952 2.298,0.952l10,-0c0.862,0 1.689,-0.342 2.298,-0.952c0.61,-0.609 0.952,-1.436 0.952,-2.298l0,-6.75Zm-12.5,-5.5l-0.75,-0c-0.862,-0 -1.689,0.342 -2.298,0.952c-0.61,0.609 -0.952,1.436 -0.952,2.298l0,0.75l16.5,-0l0,-0.75c0,-0.862 -0.342,-1.689 -0.952,-2.298c-0.609,-0.61 -1.436,-0.952 -2.298,-0.952l-0.75,-0l0,0.25c0,0.414 -0.336,0.75 -0.75,0.75c-0.414,0 -0.75,-0.336 -0.75,-0.75l0,-0.25l-5.5,-0l0,0.25c0,0.414 -0.336,0.75 -0.75,0.75c-0.414,0 -0.75,-0.336 -0.75,-0.75l0,-0.25Z"/><circle cx="6.75" cy="13.25" r="0.75"/><circle cx="6.75" cy="16.75" r="0.75"/><circle cx="10.25" cy="13.25" r="0.75"/><circle cx="10.25" cy="16.75" r="0.75"/><circle cx="13.75" cy="13.25" r="0.75"/><circle cx="13.75" cy="16.75" r="0.75"/><circle cx="17.25" cy="13.25" r="0.75"/><circle cx="17.25" cy="16.75" r="0.75"/></g></svg>